<svg xmlns="http://www.w3.org/2000/svg" viewBox="0 0 100 100" width="100" height="100">
  <defs>
    <linearGradient id="sg" x1="0" y1="0" x2="0" y2="1">
      <stop offset="0%" stop-color="#7fe4ff"/>
      <stop offset="50%" stop-color="#2aa9e0"/>
      <stop offset="100%" stop-color="#1264a8"/>
    </linearGradient>
  </defs>
  <path d="M50 8 L84 22 V50 C84 72 68 86 50 92 C32 86 16 72 16 50 V22 Z"
        fill="url(#sg)" stroke="#0c4778" stroke-width="3.5"/>
  <path d="M50 8 L84 22 V50 C84 72 68 86 50 92 Z" fill="#000" opacity="0.12"/>
  <!-- taegeuk-ish swirl emblem -->
  <circle cx="50" cy="46" r="17" fill="#fff" opacity="0.95"/>
  <path d="M50 29 a17 17 0 0 1 0 34 a8.5 8.5 0 0 1 0 -17 a8.5 8.5 0 0 0 0 -17"
        fill="#e23b3b"/>
  <path d="M50 63 a17 17 0 0 1 0 -34 a8.5 8.5 0 0 0 0 17 a8.5 8.5 0 0 1 0 17"
        fill="#1f50d6"/>
  <ellipse cx="40" cy="26" rx="9" ry="5" fill="#fff" opacity="0.45"/>
</svg>
